<svg width="142" height="96" viewBox="0 0 142 96" fill="none" xmlns="http://www.w3.org/2000/svg">
<path d="M83.0767 0.327116C81.2773 0.998083 80.4233 1.66905 79.4474 3.19398C77.9834 5.54236 78.2579 8.50072 80.2403 10.8186L81.0943 11.8251L79.3864 13.5635C78.4409 14.5089 77.404 15.9119 77.0685 16.6743C74.9031 21.4626 78.7154 26.7388 84.3271 26.7388C86.828 26.7388 88.7189 25.9154 91.0063 23.8415C92.8362 22.1946 92.5007 22.1336 95.2456 24.6954L96.496 25.9154L97.899 24.7564C98.6614 24.116 99.3019 23.506 99.3019 23.384C99.3019 23.2315 98.4479 22.3775 97.411 21.4626L95.4896 19.7547L96.8315 18.3822L98.2039 16.9793L97.289 16.0339C95.7031 14.3564 95.4286 14.3259 93.9342 15.7899L92.6227 17.0708L87.9564 12.679C85.3946 10.2696 83.1377 8.10424 82.9242 7.82975C82.2837 7.03679 82.4667 5.45087 83.2597 4.62741C84.2966 3.59046 85.4251 3.37697 86.645 3.95644L87.621 4.41392L88.9019 3.13298C89.5729 2.43151 90.1523 1.76055 90.1523 1.63855C90.1523 1.54706 89.5729 1.15058 88.8714 0.784594C87.2855 -0.038866 84.5711 -0.252356 83.0767 0.327116ZM87.072 17.1318L89.8169 19.5717L88.5664 20.8526C87.072 22.3775 85.7301 23.079 84.2966 23.079C81.7042 23.079 79.6608 20.2121 80.7283 18.1078C81.1858 17.2233 83.8086 14.5089 84.1136 14.6004C84.2356 14.6614 85.5776 15.7899 87.072 17.1318Z" fill="#F3E8FF"/>
<path d="M37.6951 34.2414V67.6983L42.9713 67.5458C49.1015 67.3628 50.9009 66.9053 54.2253 64.679C56.6651 63.032 58.1291 61.3241 59.4405 58.5487C60.3555 56.5968 60.4165 56.2614 60.4165 53.12C60.4165 49.9787 60.3555 49.6432 59.4405 47.6913C58.1901 45.0684 57.0006 43.5435 55.0487 42.11L53.5238 41.0121L55.7807 39.5177C63.4358 34.5159 67.0346 25.6713 64.8387 17.1623C62.7649 8.95816 55.3232 2.55347 46.2347 1.12004C45.1367 0.967545 42.7883 0.815056 40.9889 0.815056H37.6951V34.2414ZM48.8575 6.60977C56.4212 9.14115 61.3924 16.8878 60.2945 24.3599C59.3185 30.8561 53.8593 36.5898 47.0581 38.1757C46.0212 38.4197 44.5877 38.6332 43.8863 38.6332H42.5748V22.225C42.5748 13.1975 42.6358 5.72532 42.7273 5.63382C43.0018 5.35933 46.9666 5.9998 48.8575 6.60977ZM49.986 44.5804C53.0053 46.0749 55.0487 48.8807 55.5367 52.1746C55.6892 53.181 55.5977 54.1265 55.1097 55.6514C54.2863 58.3963 52.7003 60.2262 49.9555 61.5681C48.2171 62.4221 47.5461 62.6051 45.2587 62.666L42.5748 62.788V53.12V43.452L45.4112 43.574C47.7291 43.6655 48.522 43.8485 49.986 44.5804Z" fill="#F3E8FF"/>
<path d="M81.6737 30.7036C71.9447 32.4725 64.7775 41.2256 65.5705 50.4057C65.906 54.6754 67.7359 58.3658 71.0602 61.6596C77.3734 67.8813 87.2244 69.1927 95.4895 64.923C98.6004 63.3065 101.894 59.9517 103.48 56.7189C109.458 44.7329 100.522 31.1001 86.34 30.5511C84.6626 30.4901 82.5582 30.5511 81.6737 30.7036ZM91.3722 36.3153C95.215 37.8708 98.2649 41.0121 99.6373 44.8854C100.491 47.2948 100.339 51.3511 99.3018 53.974C98.4174 56.2919 95.4285 59.5247 92.9582 60.8362C85.12 65.0144 75.391 61.9951 71.7922 54.279C70.9992 52.6016 70.7857 51.7476 70.6942 49.6127C70.4807 44.4584 72.7681 40.2497 77.4039 37.3218C81.1247 34.9734 86.9804 34.5464 91.3722 36.3153Z" fill="#F3E8FF"/>
<path d="M39.9823 85.2654C36.9324 85.9974 35.255 88.7118 35.8955 91.7616C36.5969 94.9945 39.8908 96.6109 44.0691 95.7874L45.0145 95.5739V92.8901V90.1757H43.3371C42.4221 90.1757 41.5682 90.1757 41.4462 90.1757C41.2937 90.1757 41.2022 90.4197 41.2022 90.6942C41.2022 91.1212 41.5072 91.2736 42.3612 91.3346L43.4896 91.4261V92.9206C43.4896 94.293 43.4286 94.415 42.6051 94.598C40.1653 95.1165 37.3899 93.0426 37.3899 90.6332C37.3899 89.3217 38.2134 87.7968 39.2808 87.1258C40.3787 86.4549 43.0931 86.2719 44.1301 86.8209C44.4656 87.0344 44.7095 87.0344 44.7095 86.8514C44.7095 86.6989 44.801 86.3634 44.8925 86.1194C45.1975 85.2654 42.1782 84.747 39.9823 85.2654Z" fill="#F3E8FF"/>
<path d="M55.8416 85.2655C54.1642 85.9975 53.5238 88.0409 54.6217 89.2608C55.1402 89.8403 55.1402 89.9013 54.1947 90.9382C53.0968 92.1887 52.9443 93.5916 53.7982 94.6285C55.0792 96.2145 56.8786 96.367 58.678 95.086C59.8674 94.2016 59.8979 94.2016 60.4469 94.781C61.0569 95.452 61.5144 95.513 62.0328 94.9945C62.3073 94.72 62.2463 94.476 61.7279 93.9271C61.1484 93.2866 61.0874 93.1036 61.4534 92.5546C61.7889 92.0362 61.7584 91.8532 61.3619 91.4567C60.9044 90.9992 60.8434 90.9992 60.3554 91.4567C59.8979 91.9447 59.715 91.8532 57.763 90.1453C56.6346 89.1083 55.6891 88.0409 55.6891 87.7359C55.6891 87.0039 56.4516 86.4244 57.1531 86.6379C57.885 86.8819 59.0135 86.0585 58.5865 85.6315C58.129 85.174 56.5431 84.9605 55.8416 85.2655ZM57.4886 92.0362L58.495 92.9816L57.7935 93.7136C57.4276 94.1101 56.8481 94.4455 56.5126 94.4455C55.7501 94.4455 54.7742 93.5916 54.7742 92.9816C54.7742 92.5241 55.9331 91.0907 56.2686 91.0907C56.3601 91.0907 56.9091 91.5177 57.4886 92.0362Z" fill="#F3E8FF"/>
<path d="M71.7922 85.296C69.4439 85.9975 68.1934 87.8579 68.1934 90.6332C68.1934 92.6766 68.7119 93.8051 70.2368 94.964C71.2128 95.7265 71.6093 95.818 73.5307 95.818C75.4521 95.818 75.8485 95.7265 76.8245 94.964C78.3494 93.8051 78.9594 92.4937 78.9594 90.4808C78.9594 87.8884 77.8919 86.2415 75.6046 85.418C74.2931 84.9605 73.0122 84.93 71.7922 85.296ZM75.4521 86.9429C76.611 87.5529 77.1905 88.7728 77.1905 90.6637C77.1905 92.6156 76.428 93.8356 74.7506 94.3846C72.3717 95.1775 70.3588 93.8356 69.8403 91.1517C69.5659 89.7793 70.4503 87.5529 71.4873 86.9734C72.5547 86.4245 74.3846 86.394 75.4521 86.9429Z" fill="#F3E8FF"/>
<path d="M114.643 85.3265C113.392 85.6925 112.721 86.6684 112.721 88.0714C112.721 89.3523 113.118 89.7793 115.405 90.9077C117.357 91.8837 117.967 92.9206 117.174 93.8051C116.473 94.598 115.253 94.842 114.002 94.476C113.209 94.2321 112.965 94.2626 112.813 94.6285C112.538 95.3605 113.148 95.7265 114.765 95.879C116.869 96.0925 118.394 95.391 119.004 93.9881C119.797 92.0972 119.095 90.9382 116.32 89.5353C114.551 88.6508 114.246 88.2848 114.49 87.3394C114.643 86.6989 115.68 86.4244 117.266 86.5769C118.241 86.6684 118.516 86.5769 118.607 86.15C118.699 85.845 118.638 85.54 118.516 85.4485C117.967 85.113 115.558 85.0215 114.643 85.3265Z" fill="#F3E8FF"/>
<path d="M0.791748 90.4807V95.7264L3.71961 95.6044C6.49497 95.513 6.67796 95.452 7.37943 94.659C8.56887 93.2561 8.32488 91.6701 6.76946 90.8772C5.8545 90.4197 5.8545 90.3892 6.46447 90.0842C8.0504 89.4132 8.20289 87.1564 6.79996 86.0889C6.12899 85.5704 5.39702 85.4179 3.35362 85.3264L0.791748 85.235V90.4807ZM5.67151 87.1259C6.40348 87.8578 6.43397 88.4373 5.824 89.0473C5.33603 89.5657 3.10964 90.0232 2.62166 89.7182C2.46917 89.6267 2.31667 88.8643 2.31667 88.0103V86.5159H3.68911C4.66506 86.5159 5.24453 86.6989 5.67151 87.1259ZM5.73251 91.6091C6.46447 92.2801 6.46447 93.7135 5.70201 94.1405C5.36653 94.293 4.48207 94.4455 3.71961 94.4455H2.31667V92.7681V91.0907H3.7501C4.63456 91.0907 5.36653 91.2737 5.73251 91.6091Z" fill="#F3E8FF"/>
<path d="M12.3506 90.2062C11.1002 92.9206 10.0632 95.2385 10.0022 95.391C9.94122 95.5435 10.2462 95.6655 10.6732 95.6655C11.2832 95.6655 11.5881 95.391 12.0761 94.4455L12.6861 93.2256H15.4615H18.2368L18.6943 94.4455C19.1213 95.4825 19.3348 95.6655 20.0667 95.6655C20.5242 95.6655 20.9207 95.6045 20.9207 95.5435C20.9207 95.452 19.9142 93.1646 18.6638 90.4197C16.5594 85.7534 16.3459 85.4485 15.5224 85.357C14.638 85.2655 14.577 85.357 12.3506 90.2062ZM16.5594 89.3828C17.0779 90.6332 17.4439 91.7312 17.3219 91.8227C17.0779 92.0971 13.2961 92.0361 13.2961 91.7617C13.2961 91.3652 15.248 87.1259 15.431 87.1259C15.5224 87.1259 16.0409 88.1323 16.5594 89.3828Z" fill="#F3E8FF"/>
<path d="M23.6657 90.4807V95.6655H24.5807H25.4651L25.5566 91.6397L25.6481 87.5834L28.0575 91.6397C30.3754 95.5435 30.4669 95.6655 31.4733 95.6655H32.5103V90.4807V85.296H31.7478H31.0159L30.9244 89.4438L30.8329 93.5916L28.393 89.4438L25.9836 85.296H24.8247H23.6657V90.4807Z" fill="#F3E8FF"/>
<path d="M82.2228 90.4807V95.6655H85.4251C88.414 95.6655 88.6275 95.635 88.6275 95.0555C88.6275 94.5065 88.414 94.4455 86.1876 94.4455H83.7477V89.8707V85.296H82.9852H82.2228V90.4807Z" fill="#F3E8FF"/>
<path d="M90.7623 88.8642C90.7623 93.195 91.2808 94.6589 92.9887 95.4518C95.2456 96.5498 98.1125 95.7873 99.0579 93.8354C99.4849 92.9815 99.6069 91.975 99.6069 89.0167V85.2958H98.8444H98.082V88.7117C98.082 91.3955 97.96 92.402 97.533 93.195C96.923 94.4454 95.6726 94.9029 94.3002 94.4454C92.7752 93.9269 92.6227 93.4084 92.5922 89.1691V85.2958H91.6773H90.7623V88.8642Z" fill="#F3E8FF"/>
<path d="M103.572 90.4807V95.6655H104.334C105.066 95.6655 105.097 95.6045 105.097 93.3781V91.1212L107.171 91.0297C108.97 90.9382 109.214 90.8772 109.214 90.3282C109.214 89.7793 108.97 89.7183 107.171 89.6268L105.097 89.5353V88.0408V86.5159H107.232C109.153 86.5159 109.367 86.4549 109.367 85.9059C109.367 85.3265 109.153 85.296 106.469 85.296H103.572V90.4807Z" fill="#F3E8FF"/>
<path d="M122.786 90.4807V95.6655H126.141C129.282 95.6655 129.496 95.635 129.496 95.0555C129.496 94.5065 129.282 94.4455 127.056 94.4455H124.616V92.7681V91.0907H126.751C128.825 91.0907 128.886 91.0602 128.886 90.3282C128.886 89.5963 128.825 89.5658 126.751 89.5658H124.616V88.0408V86.5159H127.056C129.282 86.5159 129.496 86.4549 129.496 85.9059C129.496 85.3265 129.282 85.296 126.141 85.296H122.786V90.4807Z" fill="#F3E8FF"/>
<path d="M133.155 90.4807V95.6655H134.07H134.955L135.046 91.6397L135.138 87.5834L137.547 91.6397C139.865 95.5435 139.956 95.6655 140.963 95.6655H142V90.4807V85.296H141.237H140.505L140.414 89.4438L140.322 93.5916L137.883 89.4438L135.473 85.296H134.314H133.155V90.4807Z" fill="#F3E8FF"/>
</svg>
