<svg width="264" height="32" viewBox="0 0 264 32" fill="none" xmlns="http://www.w3.org/2000/svg">
<path d="M191.223 15.7519C186.131 24.4262 181.902 31.6224 181.815 31.7626L181.664 32L203.652 31.9784L225.651 31.9461L227.183 29.3567L228.726 26.7674L216.21 26.735C209.327 26.7242 203.695 26.6918 203.695 26.6595C203.695 26.6271 204.753 24.8254 206.058 22.646L208.421 18.6757L220.99 18.6433L233.559 18.6217L235.026 16.0755C235.835 14.6837 236.494 13.4862 236.494 13.4322C236.494 13.3783 231.585 13.3351 224.086 13.3351C217.268 13.3351 211.679 13.3028 211.679 13.2488C211.679 13.2057 212.693 11.4255 213.934 9.28928L216.189 5.40526L239.881 5.37289L263.574 5.35131V2.67566V0H232.027H200.469L191.223 15.7519Z" fill="#F3E8FF"/>
<path d="M49.4997 1.94201C48.8847 2.97775 45.3567 8.96561 41.6453 15.2664L34.9022 26.7026L17.4565 26.7134H0V29.3567V32L36.1753 31.9784C70.3763 31.9461 72.3722 31.9353 72.9872 31.7519C74.5408 31.2987 75.8894 30.3924 76.7417 29.2165C77.292 28.472 81.4565 21.2434 81.6939 20.65C82.2225 19.269 82.0175 18.0931 81.0789 17.1544C80.766 16.8415 80.5395 16.561 80.5718 16.5287C80.6042 16.4855 80.766 16.4639 80.9278 16.4639C81.3918 16.4639 82.6433 16.0432 83.3446 15.6548C84.3048 15.1153 85.1355 14.414 85.8045 13.5833C86.4734 12.7525 90.6703 5.68577 90.9831 4.86581C91.2852 4.08901 91.2637 2.97775 90.9508 2.2441C90.6055 1.43493 89.6561 0.593391 88.7822 0.2913L88.1025 0.0647316H69.3621H50.6109L49.4997 1.94201ZM76.4181 5.57788C76.5799 5.69656 76.7525 5.97707 76.8173 6.20364C77.0115 6.93729 76.7202 7.67094 75.3284 9.92583C73.9582 12.1483 73.5051 12.6878 72.7283 13.0546C72.2428 13.2704 72.0917 13.2812 66.9778 13.3136C64.0755 13.3243 61.7127 13.3136 61.7127 13.2812C61.7127 13.2488 62.7701 11.4471 64.0539 9.27849L66.3951 5.35131H71.2718C76.0189 5.35131 76.1484 5.3621 76.4181 5.57788ZM68.3156 18.8267C68.7364 19.0425 68.9845 19.6251 68.8982 20.2293C68.8119 20.8982 68.4127 21.675 67.0317 23.8543C66.2009 25.149 65.737 25.7856 65.4026 26.0337C64.5287 26.7026 64.3776 26.7134 58.7674 26.7134C55.9838 26.7134 53.7289 26.6703 53.7505 26.6271C53.7721 26.5732 54.8402 24.7498 56.1457 22.5705L58.5084 18.6109L63.2664 18.6433C67.0641 18.6649 68.0782 18.708 68.3156 18.8267Z" fill="#F3E8FF"/>
<path d="M105.192 0.129475C105.041 0.151052 104.555 0.226574 104.113 0.291307C101.308 0.701288 98.9344 2.12543 97.37 4.32637C96.6795 5.30816 83.927 27.0047 83.6465 27.6844C83.3336 28.4504 83.312 29.5941 83.6033 30.2198C83.9054 30.8887 84.7038 31.5361 85.5454 31.7842C86.2466 32 86.5271 32 104.329 31.9784L122.4 31.9461L123.285 31.644C124.968 31.0722 126.446 29.8206 127.838 27.7923C128.723 26.4976 141.324 5.09239 141.508 4.56373C142.112 2.84829 140.936 0.917067 138.897 0.280519C138.195 0.0647411 138.001 0.0647411 121.818 0.0755291C112.82 0.086319 105.343 0.107897 105.192 0.129475ZM120.318 5.47C120.739 5.5671 120.998 5.70736 121.3 5.99866C121.753 6.45179 121.796 6.76467 121.548 7.48753C121.462 7.73568 119.121 11.7815 116.337 16.4855C110.824 25.8179 110.759 25.9258 109.562 26.3898C108.968 26.6271 108.752 26.6487 106.972 26.6595C104.793 26.6595 104.199 26.5516 103.66 26.0445C103.358 25.764 103.336 25.6993 103.379 25.1706C103.423 24.6527 103.833 23.9191 108.591 16C112.356 9.72084 113.888 7.25018 114.276 6.86177C115.366 5.7613 116.456 5.3729 118.484 5.36211C119.174 5.35132 120.005 5.40527 120.318 5.47Z" fill="#F3E8FF"/>
<path d="M153.257 0.183296C151.66 0.45302 150.366 1.14351 149.416 2.22241C148.898 2.82659 142.705 13.2163 142.22 14.306C141.691 15.5144 141.583 16.6364 141.939 17.3377C142.144 17.7369 142.77 18.2656 143.245 18.4274C143.568 18.5353 145.92 18.5677 154.045 18.6C161.381 18.6216 164.423 18.6648 164.423 18.7403C164.423 18.9237 161.305 24.3721 160.874 24.9439C160.011 26.0983 158.943 26.6054 157.238 26.6917C156.019 26.7457 155.533 26.6378 155.145 26.2278C154.811 25.8718 154.832 25.1597 155.199 24.3721C155.35 24.0376 155.469 23.7571 155.469 23.7356C155.469 23.714 151.229 23.6924 146.05 23.6924H136.642L135.423 25.7207C134.754 26.8428 134.107 28.008 133.999 28.3209C133.546 29.5076 133.88 30.7484 134.829 31.3525C135.919 32.043 134.668 32.0107 154.455 31.9783C174.651 31.9459 172.817 32.0215 174.619 31.1368C175.687 30.6189 176.647 29.8421 177.305 28.9682C178.223 27.7598 183.757 18.4166 183.973 17.7153C184.243 16.8738 184.2 15.7409 183.865 15.1152C183.38 14.1658 182.484 13.6155 181.125 13.4429C180.682 13.389 176.259 13.335 171.037 13.335C165.912 13.335 161.726 13.3026 161.726 13.2703C161.726 13.1084 165.06 7.55214 165.481 7.0127C166.387 5.85828 167.38 5.36199 168.793 5.3512C169.807 5.3512 170.282 5.53461 170.66 6.10642C170.886 6.44088 170.908 6.58114 170.875 7.23926C170.843 7.64924 170.746 8.15632 170.638 8.33974L170.455 8.69577H180.003H189.551L190.597 6.80771C191.978 4.29388 192.173 3.79759 192.237 2.65396C192.27 1.84479 192.248 1.68296 192.022 1.2514C191.849 0.927732 191.579 0.65801 191.234 0.44223L190.716 0.118563L172.256 0.107773C162.104 0.0969849 153.559 0.129351 153.257 0.183296Z" fill="#F3E8FF"/>
</svg>
