<?xml version="1.0" standalone="no"?>
<!DOCTYPE svg PUBLIC "-//W3C//DTD SVG 20010904//EN"
 "http://www.w3.org/TR/2001/REC-SVG-20010904/DTD/svg10.dtd">
<svg version="1.0" xmlns="http://www.w3.org/2000/svg"
 width="512.000000pt" height="512.000000pt" viewBox="0 0 512.000000 512.000000"
 preserveAspectRatio="xMidYMid meet">

<g transform="translate(0.000000,512.000000) scale(0.100000,-0.100000)"
fill="#000000" stroke="none">
<path d="M1905 5114 c-898 -70 -1529 -399 -1779 -929 -42 -88 -90 -237 -107
-335 -20 -111 -18 -375 5 -480 90 -428 343 -712 726 -815 397 -106 851 -3
1087 247 133 142 197 302 209 523 8 138 -10 228 -65 340 -110 221 -329 356
-581 358 -313 2 -544 -178 -625 -489 -36 -141 -9 -244 78 -298 122 -76 271 -6
298 139 33 179 99 247 239 249 48 0 77 -6 112 -22 59 -29 123 -99 137 -148 23
-83 6 -215 -38 -303 -49 -94 -163 -171 -316 -212 -112 -30 -307 -30 -416 -1
-256 69 -405 239 -454 518 -43 246 11 493 150 689 261 369 927 596 1675 571
311 -10 524 -38 788 -103 165 -41 206 -39 272 8 105 76 105 242 -1 318 -67 49
-405 123 -711 156 -137 15 -579 27 -683 19z"/>
<path d="M4390 5104 c-98 -21 -202 -77 -276 -148 -35 -33 -532 -632 -1104
-1330 l-1041 -1270 -142 3 c-207 3 -339 -26 -523 -114 -114 -55 -228 -139
-324 -241 -137 -143 -201 -263 -323 -594 -89 -244 -113 -299 -162 -375 -80
-125 -186 -214 -340 -285 -97 -45 -140 -92 -151 -167 -15 -98 34 -170 176
-257 237 -147 506 -252 774 -303 128 -25 523 -24 686 1 386 58 652 184 904
427 118 113 188 209 251 342 100 211 130 474 80 694 l-16 72 248 308 c136 169
256 324 265 343 25 48 23 116 -4 170 -19 36 -69 82 -261 237 -131 106 -239
194 -240 196 -5 12 1526 1864 1555 1882 24 14 51 20 98 20 78 0 127 -25 168
-88 35 -53 39 -155 7 -203 -11 -17 -258 -315 -550 -663 -291 -348 -538 -649
-549 -669 -14 -27 -17 -50 -14 -98 4 -70 20 -98 82 -148 34 -28 44 -31 110
-31 60 0 78 4 107 24 43 30 1101 1292 1152 1374 105 171 113 389 21 577 -46
93 -160 210 -251 258 -126 66 -274 86 -413 56z m-1629 -2721 c81 -65 148 -120
149 -123 0 -3 -48 -64 -106 -135 -58 -72 -114 -140 -125 -153 l-18 -24 -62 67
c-34 36 -98 93 -143 127 -45 33 -81 65 -81 70 0 9 226 288 233 288 2 0 71 -53
153 -117z m-789 -442 c42 -11 103 -33 136 -50 95 -48 214 -152 265 -231 l18
-28 -78 -67 c-140 -120 -270 -210 -586 -406 -60 -37 -78 -55 -97 -93 -32 -67
-26 -151 16 -203 54 -66 77 -78 157 -78 71 0 75 1 182 64 132 77 321 202 427
283 42 32 79 58 81 58 11 0 -25 -146 -52 -212 -89 -211 -333 -413 -608 -504
-151 -49 -287 -66 -533 -68 -201 -1 -236 1 -327 22 -117 26 -198 51 -299 93
l-72 30 78 78 c146 148 226 294 350 636 111 307 184 433 308 530 78 61 196
122 284 145 100 26 250 26 350 1z"/>
<path d="M4775 3232 c-53 -25 -101 -81 -116 -134 -10 -37 -8 -61 15 -173 39
-193 49 -311 42 -475 -23 -540 -189 -962 -511 -1299 -236 -247 -531 -428 -924
-567 -149 -53 -174 -67 -208 -116 -90 -131 -1 -308 155 -308 32 0 94 15 178
44 783 269 1333 780 1569 1456 129 373 175 826 120 1184 -25 159 -53 275 -76
313 -49 79 -162 114 -244 75z"/>
</g>
</svg>
