<?xml version="1.0" standalone="no"?>
<!DOCTYPE svg PUBLIC "-//W3C//DTD SVG 20010904//EN"
 "http://www.w3.org/TR/2001/REC-SVG-20010904/DTD/svg10.dtd">
<svg version="1.0" xmlns="http://www.w3.org/2000/svg"
 width="512.000000pt" height="512.000000pt" viewBox="0 0 512.000000 512.000000"
 preserveAspectRatio="xMidYMid meet">

<g transform="translate(0.000000,512.000000) scale(0.100000,-0.100000)"
fill="#000000" stroke="none">
<path d="M3380 4474 c-292 -37 -540 -157 -752 -362 -240 -232 -379 -546 -382
-859 -1 -121 6 -141 68 -187 39 -29 133 -29 172 0 56 42 67 66 75 178 21 262
104 451 279 627 201 203 447 300 725 286 137 -7 244 -34 360 -92 318 -157 532
-495 552 -870 11 -203 -21 -389 -92 -540 -58 -125 -134 -221 -348 -440 -102
-105 -201 -210 -220 -235 -100 -132 -197 -330 -297 -604 -65 -177 -107 -248
-185 -309 -254 -202 -629 -98 -745 206 -22 57 -24 82 -29 304 -6 223 -8 244
-27 269 -39 53 -71 69 -134 69 -63 0 -95 -16 -134 -69 -20 -26 -21 -40 -21
-284 0 -293 6 -324 80 -477 78 -161 199 -282 360 -360 132 -64 197 -79 350
-79 146 0 236 19 348 75 215 108 331 250 429 523 78 220 147 368 225 491 27
40 121 147 229 257 293 300 388 433 457 640 76 226 96 534 52 767 -102 534
-495 947 -1007 1057 -71 15 -318 27 -388 18z"/>
<path d="M3380 3824 c-177 -38 -348 -171 -429 -334 -66 -134 -72 -185 -69
-531 3 -283 4 -299 24 -325 34 -46 67 -65 134 -74 105 -15 155 -66 155 -160 0
-94 -50 -145 -155 -160 -67 -9 -100 -28 -134 -74 -19 -25 -21 -42 -21 -166 0
-151 5 -167 69 -214 39 -29 133 -29 172 0 44 32 66 68 71 116 5 42 7 45 68 77
150 77 255 251 255 421 0 171 -106 345 -257 422 l-64 33 3 215 3 215 36 65
c104 190 353 227 504 75 54 -54 85 -122 95 -213 13 -116 61 -167 160 -167 63
0 95 16 134 69 30 39 29 174 -2 271 -98 318 -426 509 -752 439z"/>
<path d="M894 3346 c-17 -8 -41 -26 -54 -42 -12 -16 -87 -189 -164 -384 l-142
-355 -136 -5 c-148 -5 -166 -12 -212 -74 -29 -39 -29 -133 0 -172 49 -67 57
-69 272 -72 215 -4 253 2 294 45 16 17 58 107 106 228 l80 200 26 -85 c14 -47
95 -317 180 -600 152 -508 155 -515 192 -547 67 -59 155 -56 214 6 32 34 52
89 215 579 99 298 182 542 185 542 3 0 39 -68 80 -151 79 -160 114 -203 172
-214 18 -4 119 -5 225 -3 175 3 194 5 219 24 53 39 69 71 69 134 0 63 -16 95
-69 134 -24 18 -45 21 -167 24 l-140 4 -144 287 c-101 202 -153 296 -175 314
-58 49 -146 48 -205 -4 -31 -28 -45 -64 -196 -517 -89 -268 -164 -490 -168
-494 -4 -4 -83 248 -176 559 -127 423 -176 575 -195 597 -44 52 -121 70 -186
42z"/>
</g>
</svg>
