<?xml version="1.0" standalone="no"?>
<!DOCTYPE svg PUBLIC "-//W3C//DTD SVG 20010904//EN"
 "http://www.w3.org/TR/2001/REC-SVG-20010904/DTD/svg10.dtd">
<svg version="1.0" xmlns="http://www.w3.org/2000/svg"
 width="512.000000pt" height="512.000000pt" viewBox="0 0 512.000000 512.000000"
 preserveAspectRatio="xMidYMid meet">

<g transform="translate(0.000000,512.000000) scale(0.100000,-0.100000)"
fill="#000000" stroke="none">
<path d="M2290 4945 c-515 -67 -956 -282 -1320 -645 -314 -312 -524 -698 -613
-1125 -39 -187 -51 -324 -44 -528 6 -166 11 -212 53 -432 6 -30 4 -31 -49 -48
-197 -62 -330 -258 -314 -462 4 -59 39 -161 227 -670 122 -330 233 -621 247
-647 53 -97 152 -175 267 -210 55 -16 85 -20 150 -15 71 4 118 18 391 118 171
61 322 121 338 131 36 26 57 68 57 117 0 27 -48 172 -144 436 l-143 395 149 0
c206 0 206 0 298 180 41 81 71 129 74 120 3 -8 50 -194 104 -412 55 -219 107
-409 116 -423 61 -93 208 -83 254 17 13 28 45 198 93 490 40 246 75 445 78
443 2 -3 39 -212 81 -466 83 -496 84 -497 151 -531 67 -35 151 -14 188 46 11
17 65 213 121 436 56 222 103 406 105 408 2 2 33 -54 69 -126 89 -178 86 -176
289 -180 86 -2 157 -5 157 -7 0 -2 -65 -184 -145 -404 -80 -220 -145 -409
-145 -421 0 -32 25 -82 52 -108 15 -14 151 -69 344 -139 274 -100 330 -117
394 -121 166 -10 318 66 405 203 19 29 127 303 259 660 245 657 251 678 227
797 -34 163 -141 284 -304 344 -34 12 -61 26 -60 31 68 340 79 568 38 843
-109 731 -573 1364 -1240 1691 -209 102 -392 161 -625 201 -152 26 -481 33
-630 13z m-691 -1170 c53 -27 101 -15 196 48 465 310 1054 311 1524 3 155
-102 157 -101 390 127 l185 181 74 -80 c426 -456 615 -1063 513 -1647 -11 -60
-21 -110 -23 -112 -2 -2 -52 14 -112 35 -61 23 -125 40 -149 40 -47 0 -98 -26
-122 -63 -9 -14 -66 -164 -128 -333 l-113 -309 -141 -3 -142 -3 -141 280
c-137 274 -141 280 -183 300 -24 12 -56 21 -71 21 -39 0 -93 -28 -116 -60 -11
-15 -45 -132 -80 -271 -33 -134 -63 -251 -67 -259 -3 -8 -48 235 -99 539 -99
593 -97 583 -165 629 -67 46 -183 7 -208 -70 -6 -18 -49 -265 -96 -548 -47
-283 -88 -526 -91 -540 -5 -18 -26 52 -73 237 -58 228 -70 266 -95 292 -36 37
-86 55 -133 48 -71 -12 -90 -38 -233 -326 l-135 -271 -141 0 -141 0 -113 313
c-62 171 -122 324 -132 340 -48 68 -113 72 -268 17 -79 -28 -112 -36 -115 -27
-39 111 -56 467 -31 654 54 413 236 794 520 1091 l80 83 170 -169 c94 -94 186
-178 205 -187z"/>
</g>
</svg>
