<svg width="20" height="23" viewBox="0 0 20 23" fill="none" xmlns="http://www.w3.org/2000/svg">
<path d="M17.1429 10.0397L16.4286 10.0802V6.48014C16.4286 2.90661 13.5451 0 10 0C6.45491 0 3.57143 2.90661 3.57143 6.48014V10.0802L2.85714 10.0397C1.27902 10.0397 0 11.329 0 12.9198V20.1199C0 21.7103 1.27902 23 2.85714 23H17.1429C18.721 23 20 21.7103 20 20.1199V12.9198C20 11.3717 18.7188 10.0397 17.1429 10.0397ZM6.42857 6.48014C6.42857 4.4947 8.03125 2.88006 10 2.88006C11.9688 2.88006 13.5714 4.4947 13.5714 6.48014V10.0802H6.42857V6.48014Z" fill="white"/>
</svg>
