<svg width="316" height="32" viewBox="0 0 316 32" fill="none" xmlns="http://www.w3.org/2000/svg">
<path d="M0.741455 12.2469V24.4938H2.3217H3.90195V13.6296V2.76544L13.3044 2.72593H22.6674L23.7736 1.34322L24.9192 7.62939e-06H12.8303H0.741455V12.2469Z" fill="#F3E8FF"/>
<path d="M27.0131 0.750616C25.1168 1.8963 24.2081 3.16049 17.9266 13.5506C10.7365 25.4815 10.8155 25.4025 4.81059 25.6L0.741455 25.758V28.879V32H10.3415C18.9143 32 20.06 31.921 21.2847 31.2494C23.2205 30.2222 24.1291 28.958 29.976 19.1605C32.86 14.3802 35.6254 9.87654 36.1785 9.16543C37.7587 7.0716 39.9316 6.20247 44.1192 6.00494L47.7538 5.84691V2.92346V0H37.9958C29.1464 0 28.0797 0.07901 27.0131 0.750616Z" fill="#F3E8FF"/>
<path d="M70.1932 6.28136C66.045 6.47889 65.4524 6.59741 64.6623 7.42704C63.9907 8.09865 63.7537 8.77025 63.7537 10.1925C63.7537 11.8912 64.0302 12.4048 66.8352 16.1974C68.4944 18.4493 69.8771 20.6221 69.8771 21.0172C69.8771 21.6493 69.4821 21.7283 66.7166 21.7283H63.5562V23.9406V26.1135L70.9043 25.9949L78.2524 25.8764L79.4376 24.5332C81.3339 22.3999 80.9389 20.7801 77.2253 15.7628C75.566 13.511 74.2228 11.3777 74.2228 10.9826C74.2228 10.39 74.6969 10.2715 77.5018 10.1925L80.7413 10.074V8.09865V6.12334L77.7784 6.08383C76.1586 6.08383 72.7216 6.16284 70.1932 6.28136Z" fill="#F3E8FF"/>
<path d="M88.9588 6.20243L87.26 6.36046V16.237V26.074H95.9514H104.643V23.9012V21.7284H100.297H95.9514V19.9506V18.1728H100.297H104.643V16.1975V14.2222H100.297H95.9514V12.2469V10.2716H100.297H104.643V8.37527V6.43947L99.823 6.20243C95.0032 5.92589 92.0798 5.92589 88.9588 6.20243Z" fill="#F3E8FF"/>
<path d="M112.425 6.16284C112.267 6.32087 112.149 10.8641 112.149 16.2764V26.1135L114.243 25.9949L116.297 25.8764L116.494 20.069L116.692 14.3011L120.603 20.1875L124.514 26.074H128.978H133.482V16.2369V6.39988L131.507 6.24186L129.531 6.12334L129.452 12.2073L129.334 18.2912L125.383 12.3258L121.433 6.32087H118.233C116.455 6.32087 114.519 6.20235 113.887 6.08383C113.255 5.96531 112.623 6.00482 112.425 6.16284Z" fill="#F3E8FF"/>
<path d="M140.594 16V26.074H142.569H144.544V19.8716V13.6296L148.692 19.8716L152.84 26.074H157.384H161.927L161.848 16.079L161.729 6.12342H159.754H157.779L157.66 12.2469L157.542 18.3703L153.67 12.4049L149.798 6.43947L146.717 6.20243C145.018 6.04441 142.964 5.92589 142.095 5.92589H140.594V16Z" fill="#F3E8FF"/>
<path d="M169.828 15.9999V26.1135L174.095 25.9949L178.322 25.8764L178.44 22.2024L178.559 18.5678H181.877H185.235V22.3209V26.074H189.581H193.927V16.1974V6.32087L193.058 6.12334C192.544 6.00482 190.648 5.92581 188.791 6.00482L185.433 6.12334L185.314 9.95544L185.196 13.827H181.877H178.519V10.1135C178.519 5.76778 178.756 5.92581 173.305 5.92581H169.828V15.9999Z" fill="#F3E8FF"/>
<path d="M202.223 16.0395V26.074H210.914H219.606V23.9012V21.7284H215.063H210.519V19.9506V18.1728H215.063H219.606V16.1975V14.2617L215.181 14.1432L210.717 14.0247L210.598 12.1284L210.48 10.2716H215.023H219.606V8.17774V6.12342L210.914 6.0444L202.223 6.0049V16.0395Z" fill="#F3E8FF"/>
<path d="M229.759 6.20235L226.717 6.36037L226.796 16.1184L226.914 25.8764L231.181 25.9949L235.408 26.1135V15.9999V5.92581L234.144 6.00482C233.433 6.04432 231.458 6.16284 229.759 6.20235Z" fill="#F3E8FF"/>
<path d="M246.589 6.20235C244.89 6.32087 244.376 6.55791 243.507 7.54556C242.835 8.37519 242.519 9.20482 242.519 10.2715C242.519 11.7332 243.705 13.669 247.892 19.1604C249.552 21.3727 249.275 21.6888 245.601 21.8073L242.322 21.9258L242.203 24.0196L242.085 26.1135L249.591 25.9949C256.86 25.8764 257.097 25.8369 258.085 24.9283C259.27 23.8221 259.705 21.9653 259.152 20.4641C258.914 19.8715 257.492 17.6591 255.912 15.5653C254.371 13.432 253.068 11.4172 253.028 11.1011C252.989 10.5875 253.581 10.4295 256.268 10.3505L259.507 10.232V8.33568V6.43939L257.097 6.16284C254.648 5.92581 250.5 5.92581 246.589 6.20235Z" fill="#F3E8FF"/>
<path d="M265.828 16.0395V26.074H274.519H283.211V23.9012V21.7284H278.668H274.124V19.9506V18.1728H278.668H283.211V16.1975V14.2617L278.786 14.1432L274.322 14.0247L274.203 12.1284L274.085 10.2716H278.668H283.25L283.132 8.25675L283.013 6.20243L274.44 6.12342L265.828 6.0049V16.0395Z" fill="#F3E8FF"/>
<path d="M293.403 6.20243L290.717 6.36045V16.1975V26.074H295.062H299.408V22.1234V18.1728H301.304H303.201L305.334 22.1234L307.428 26.074H311.339H315.29L313.077 21.9259L310.865 17.7382L312.643 16.0395C314.302 14.4592 314.421 14.2222 314.421 12.2469C314.421 9.8765 313.512 8.05922 311.774 7.03206C310.904 6.51847 309.206 6.36045 303.359 6.20243C299.329 6.12341 294.865 6.12341 293.403 6.20243ZM306.322 11.6148C306.914 13.3926 305.571 14.2222 302.134 14.2222H299.408V12.2469V10.2321L302.648 10.3506C305.848 10.4691 305.927 10.5086 306.322 11.6148Z" fill="#F3E8FF"/>
<path d="M44.5934 18.1728V28.8395H35.3884H26.144L24.7218 30.4198L23.2996 32H35.5465H47.7539V19.7531V7.50617H46.1736H44.5934V18.1728Z" fill="#F3E8FF"/>
</svg>
