<svg width="183" height="32" viewBox="0 0 183 32" fill="none" xmlns="http://www.w3.org/2000/svg">
<path d="M12.1317 0.275852C6.43083 1.15449 2.09895 3.50432 0.648184 6.48759C0.13735 7.48883 0.0760498 7.87706 0.0760498 9.57303C0.0760498 11.3507 0.13735 11.6368 0.729918 12.8628C1.95592 15.3352 4.24446 16.9495 7.8203 17.8485C9.92493 18.3798 13.9094 18.9519 19.7942 19.6058C26.619 20.3414 28.2332 20.7909 28.8871 22.1804C29.2958 23.0386 29.214 24.1625 28.6828 24.9798C27.4772 26.8188 21.245 28.0448 16.5045 27.3705C13.9503 27.0027 10.9057 26.1854 9.39367 25.4702C7.00296 24.3259 4.87789 21.8331 4.87789 20.1371V19.5854H2.83455H0.791218V25.2046V30.8237H3.03889H5.28656V29.9247C5.28656 28.7804 5.65436 28.433 6.45126 28.8417C7.67726 29.4751 11.5187 30.6194 14.0525 31.1302C21.6537 32.6014 30.4605 30.9668 34.3428 27.3705C35.7527 26.0628 36.4474 24.8163 36.7335 23.0999C37.2443 19.9123 35.8753 16.7451 33.1985 14.9879C30.3379 13.0876 26.8846 12.2907 16.1162 11.1055C9.51626 10.3699 8.51503 10.1247 7.8203 9.0622C7.3299 8.3266 7.5751 7.2232 8.39243 6.36499C9.67973 5.01639 12.9286 4.23993 17.2401 4.23993C21.4085 4.23993 25.3521 5.11856 27.8654 6.6102C29.3775 7.50926 30.0927 8.30616 30.8283 9.87953L31.4004 11.1055L33.1577 11.0442L34.9149 10.9829V6.22196C34.9149 3.60649 34.8741 1.42012 34.8332 1.37925C34.7923 1.33839 33.8728 1.31795 32.7899 1.35882L30.8283 1.42012V2.13529C30.8283 2.56439 30.7057 2.89132 30.5218 2.95262C30.3583 3.01392 29.4592 2.74829 28.5397 2.36005C26.3125 1.39969 23.6357 0.664085 21.1224 0.275852C18.6908 -0.0919495 14.4203 -0.0919495 12.1317 0.275852Z" fill="#F3E8FF"/>
<path d="M60.2522 0.275841C55.0213 1.11361 50.4647 3.19781 47.5631 6.09935C43.2108 10.4517 42.2709 17.3581 45.2746 22.8547C46.2758 24.6733 49.0548 27.3909 51.0981 28.5556C57.8002 32.3154 66.6479 33.051 74.3513 30.4968C79.5005 28.7804 82.872 26.1036 84.7723 22.1804C85.8144 20.0145 86.2026 18.3185 86.2026 15.8869C86.2026 7.87706 79.8478 1.72661 70.0398 0.296274C67.4039 -0.0919609 62.6838 -0.0919609 60.2522 0.275841ZM68.5073 4.56685C71.5723 5.38418 74.4943 7.59099 75.8429 10.1247C77.641 13.4758 77.641 18.2572 75.8633 21.6287C73.207 26.6962 66.4027 29.0665 60.4361 27.0027C56.4721 25.6337 53.8362 22.773 52.8758 18.768C52.4876 17.2151 52.5489 14.2523 52.978 12.638C54.1222 8.40832 57.6368 5.20028 62.0912 4.36251C63.9302 4.01515 66.7909 4.09688 68.5073 4.56685Z" fill="#F3E8FF"/>
<path d="M90.6981 3.42255V5.24112L92.9458 5.32285C94.9483 5.38415 95.2343 5.42502 95.643 5.85412L96.113 6.32409V16.1321V25.9606L95.6226 26.3488C95.2343 26.6757 94.8052 26.737 93.0275 26.737H90.9025V28.4739V30.2107H99.178H107.453V28.4943V26.7779L104.981 26.6962C101.426 26.6144 101.732 27.4318 101.732 17.9098V10.1656L102.427 10.7377C102.795 11.0442 105.614 13.5575 108.7 16.316C111.785 19.0745 116.526 23.3246 119.264 25.7562L124.25 30.2107H127.11H129.991L129.848 18.155C129.685 3.76991 129.317 5.28198 132.893 5.28198H135.263L135.202 3.48385L135.141 1.70614L126.824 1.64484L118.488 1.60398V3.44298V5.28198H120.796C122.472 5.28198 123.228 5.36372 123.494 5.56805C124.025 5.95629 124.168 7.85659 124.188 14.334L124.209 19.2175L123.718 18.8293C123.453 18.625 120.94 16.3977 118.161 13.864C115.361 11.3303 111.172 7.55009 108.843 5.42502L104.593 1.60398H97.6455H90.6981V3.42255Z" fill="#F3E8FF"/>
<path d="M138.675 1.74701C138.635 1.84918 138.635 2.66651 138.675 3.58601L138.737 5.24112L141.066 5.32285C143.13 5.38415 143.436 5.44545 144.09 5.89499C144.765 6.38539 146.44 8.22439 153.081 15.7643L156.085 19.1971V22.6299C156.085 25.5723 156.044 26.124 155.737 26.3488C155.513 26.5531 154.675 26.6553 153.081 26.6962L150.772 26.7779V28.4943V30.2107H160.58H170.388V28.4943V26.7779L167.916 26.6962C165.75 26.6349 165.423 26.594 165.157 26.2466C164.932 25.9401 164.871 25.0615 164.871 22.4869V19.1358L170.368 12.8832C173.392 9.42996 176.15 6.32409 176.518 5.99715C177.151 5.38415 177.192 5.38415 179.706 5.32285L182.239 5.24112V3.42255V1.60398L174.229 1.64484L166.199 1.70614L166.138 3.48385L166.077 5.28198H167.486C169.162 5.28198 169.612 5.58848 169.101 6.34452C168.937 6.61015 167.323 8.53089 165.525 10.6355L162.256 14.477L158.741 10.2677C156.616 7.73399 155.267 5.93585 155.308 5.73152C155.369 5.44545 155.656 5.36372 156.861 5.32285L158.332 5.26155V3.44298V1.60398H148.545C143.15 1.60398 138.716 1.66528 138.675 1.74701Z" fill="#F3E8FF"/>
</svg>
