<svg width="43" height="33" viewBox="0 0 43 33" fill="none" xmlns="http://www.w3.org/2000/svg">
<path d="M28.9546 2.81307L31.8087 8.49126C32.1933 9.27654 33.2256 10.0216 34.096 10.1826L39.2576 11.0283C42.5569 11.572 43.3261 13.948 40.9579 16.324L36.9298 20.3309C36.2618 20.9954 35.8772 22.3042 36.0999 23.2505L37.2537 28.2039C38.1645 32.1101 36.0594 33.6404 32.5981 31.5866L27.7604 28.7274C26.89 28.2039 25.4326 28.2039 24.5622 28.7274L19.7245 31.5866C16.2632 33.6203 14.1581 32.1101 15.0689 28.2039L16.2227 23.2505C16.4049 22.284 16.0203 20.9752 15.3523 20.3108L11.3242 16.3038C8.95597 13.948 9.72515 11.572 13.0245 11.0082L18.1861 10.1625C19.0565 10.0216 20.0888 9.25641 20.4734 8.47113L23.3275 2.79293C24.8861 -0.267658 27.396 -0.267658 28.9546 2.81307Z" fill="#F3E8FF"/>
<path d="M13.9964 3.90037H1.85143C1.02153 3.90037 0.333313 3.21576 0.333313 2.39021C0.333313 1.56466 1.02153 0.880051 1.85143 0.880051H13.9964C14.8263 0.880051 15.5145 1.56466 15.5145 2.39021C15.5145 3.21576 14.8263 3.90037 13.9964 3.90037Z" fill="#F3E8FF"/>
<path d="M7.9239 32.09H1.85143C1.02153 32.09 0.333313 31.4054 0.333313 30.5798C0.333313 29.7543 1.02153 29.0697 1.85143 29.0697H7.9239C8.7538 29.0697 9.44201 29.7543 9.44201 30.5798C9.44201 31.4054 8.7538 32.09 7.9239 32.09Z" fill="#F3E8FF"/>
<path d="M3.87558 17.9952H1.85143C1.02153 17.9952 0.333313 17.3106 0.333313 16.4851C0.333313 15.6595 1.02153 14.9749 1.85143 14.9749H3.87558C4.70549 14.9749 5.3937 15.6595 5.3937 16.4851C5.3937 17.3106 4.70549 17.9952 3.87558 17.9952Z" fill="#F3E8FF"/>
</svg>
